# Blender v2.76 (sub 0) OBJ File: 'grass.blend'
# www.blender.org
mtllib grass.mtl
o Cube
v 1.000000 -1.000000 -1.000000
v 1.000000 -1.000000 1.000000
v -1.000000 -1.000000 1.000000
v -1.000000 -1.000000 -1.000000
v 1.000000 1.000000 -0.999999
v 0.999999 1.000000 1.000001
v -1.000000 1.000000 1.000000
v -1.000000 1.000000 -1.000000
vt 0.252167 0.002013
vt 0.502124 0.002109
vt 0.502028 0.252066
vt 0.252071 0.251970
vt 0.251878 0.751883
vt 0.251975 0.501927
vt 0.501931 0.502023
vt 0.501835 0.751979
vt 0.251782 1.001840
vt 0.501739 1.001936
vt 0.751792 0.752076
vt 0.751888 0.502119
vt 0.001922 0.751787
vt 0.002018 0.501830
vn 0.000000 -1.000000 0.000000
vn 0.000000 1.000000 0.000000
vn 1.000000 0.000000 0.000000
vn -0.000000 -0.000000 1.000000
vn -1.000000 -0.000000 -0.000000
vn 0.000000 0.000000 -1.000000
usemtl Material
s off
f 1/1/1 2/2/1 3/3/1 4/4/1
f 5/5/2 8/6/2 7/7/2 6/8/2
f 1/9/3 5/5/3 6/8/3 2/10/3
f 2/11/4 6/8/4 7/7/4 3/12/4
f 3/3/5 7/7/5 8/6/5 4/4/5
f 5/5/6 1/13/6 4/14/6 8/6/6
